<svg xmlns="http://www.w3.org/2000/svg" id="Layer_1" baseProfile="tiny" version="1.2" viewBox="59.5 62.5 218 235">
  <polygon points="277 159 169 222 60.3 159 60 188 169 251 277 189.4 277 159" fill="#c42b1c" stroke="#c42b1c"/>
  <polygon points="137 73 137 146 155 146 155 95 182 146 200 146 200 73 182 73 182 124 155 73 137 73" fill="#c42b1c" stroke="#c42b1c"/>
  <polygon points="60 205 60 233.8 168 297 277 233 277 204.4 167 268 60 205" fill="#1d202b" stroke="#1d202b"/>
  <polygon points="60 84 60 142 168 205 277 141 277 83 252 83 251 128 168 176 85 127 85 84.3 60 84" fill="#1d202b" stroke="#1d202b"/>
</svg>
